<?xml version="1.0" encoding="UTF-8" standalone="no"?>
<svg width="16" height="16" viewBox="0 0 16 16" xmlns="http://www.w3.org/2000/svg">
  <g stroke="#000" stroke-width="0.5" fill="none">
    <!-- Simple geodesic pattern -->
    <line x1="8" y1="2" x2="5" y2="4"/>
    <line x1="8" y1="2" x2="11" y2="4"/>
    <line x1="8" y1="2" x2="8" y2="5"/>
    <line x1="5" y1="4" x2="3" y2="7"/>
    <line x1="5" y1="4" x2="6" y2="7"/>
    <line x1="8" y1="5" x2="6" y2="7"/>
    <line x1="8" y1="5" x2="10" y2="7"/>
    <line x1="11" y1="4" x2="10" y2="7"/>
    <line x1="11" y1="4" x2="13" y2="7"/>
    <line x1="3" y1="7" x2="6" y2="7"/>
    <line x1="6" y1="7" x2="8" y2="8"/>
    <line x1="8" y1="8" x2="10" y2="7"/>
    <line x1="10" y1="7" x2="13" y2="7"/>
    <line x1="3" y1="7" x2="5" y2="10"/>
    <line x1="6" y1="7" x2="6" y2="10"/>
    <line x1="8" y1="8" x2="8" y2="11"/>
    <line x1="10" y1="7" x2="10" y2="10"/>
    <line x1="13" y1="7" x2="11" y2="10"/>
    <line x1="5" y1="10" x2="6" y2="10"/>
    <line x1="6" y1="10" x2="8" y2="11"/>
    <line x1="8" y1="11" x2="10" y2="10"/>
    <line x1="10" y1="10" x2="11" y2="10"/>
    <line x1="5" y1="10" x2="8" y2="14"/>
    <line x1="6" y1="10" x2="8" y2="14"/>
    <line x1="8" y1="11" x2="8" y2="14"/>
    <line x1="10" y1="10" x2="8" y2="14"/>
    <line x1="11" y1="10" x2="8" y2="14"/>
  </g>
</svg>
