<?xml version="1.0" encoding="UTF-8" standalone="no"?>
<svg width="32" height="32" viewBox="0 0 32 32" xmlns="http://www.w3.org/2000/svg">
  <g stroke="#000" stroke-width="0.75" fill="none">
    <!-- Geodesic sphere -->
    <line x1="16" y1="3" x2="12" y2="6"/>
    <line x1="16" y1="3" x2="20" y2="6"/>
    <line x1="16" y1="3" x2="14" y2="7"/>
    <line x1="16" y1="3" x2="18" y2="7"/>
    <line x1="16" y1="3" x2="16" y2="8"/>
    <line x1="12" y1="6" x2="9" y2="9"/>
    <line x1="12" y1="6" x2="14" y2="7"/>
    <line x1="14" y1="7" x2="11" y2="11"/>
    <line x1="14" y1="7" x2="16" y2="8"/>
    <line x1="16" y1="8" x2="14" y2="12"/>
    <line x1="16" y1="8" x2="18" y2="7"/>
    <line x1="18" y1="7" x2="18" y2="12"/>
    <line x1="18" y1="7" x2="20" y2="6"/>
    <line x1="20" y1="6" x2="21" y2="11"/>
    <line x1="20" y1="6" x2="23" y2="9"/>
    <line x1="9" y1="9" x2="11" y2="11"/>
    <line x1="11" y1="11" x2="9" y2="13"/>
    <line x1="11" y1="11" x2="14" y2="12"/>
    <line x1="14" y1="12" x2="11" y2="15"/>
    <line x1="14" y1="12" x2="16" y2="16"/>
    <line x1="16" y1="16" x2="18" y2="12"/>
    <line x1="18" y1="12" x2="21" y2="15"/>
    <line x1="18" y1="12" x2="21" y2="11"/>
    <line x1="21" y1="11" x2="23" y2="13"/>
    <line x1="21" y1="11" x2="23" y2="9"/>
    <line x1="9" y1="13" x2="11" y2="15"/>
    <line x1="11" y1="15" x2="9" y2="18"/>
    <line x1="11" y1="15" x2="14" y2="17"/>
    <line x1="14" y1="17" x2="16" y2="16"/>
    <line x1="16" y1="16" x2="18" y2="17"/>
    <line x1="18" y1="17" x2="21" y2="15"/>
    <line x1="21" y1="15" x2="23" y2="18"/>
    <line x1="21" y1="15" x2="23" y2="13"/>
    <line x1="9" y1="18" x2="11" y2="19"/>
    <line x1="11" y1="19" x2="14" y2="17"/>
    <line x1="14" y1="17" x2="14" y2="21"/>
    <line x1="14" y1="21" x2="16" y2="21"/>
    <line x1="16" y1="21" x2="18" y2="21"/>
    <line x1="18" y1="21" x2="18" y2="17"/>
    <line x1="18" y1="17" x2="21" y2="19"/>
    <line x1="21" y1="19" x2="23" y2="18"/>
    <line x1="11" y1="19" x2="12" y2="23"/>
    <line x1="12" y1="23" x2="14" y2="21"/>
    <line x1="14" y1="21" x2="14" y2="22"/>
    <line x1="14" y1="22" x2="16" y2="21"/>
    <line x1="16" y1="21" x2="18" y2="22"/>
    <line x1="18" y1="22" x2="18" y2="21"/>
    <line x1="18" y1="21" x2="20" y2="23"/>
    <line x1="20" y1="23" x2="21" y2="19"/>
    <line x1="12" y1="23" x2="16" y2="29"/>
    <line x1="14" y1="22" x2="16" y2="29"/>
    <line x1="16" y1="21" x2="16" y2="29"/>
    <line x1="18" y1="22" x2="16" y2="29"/>
    <line x1="20" y1="23" x2="16" y2="29"/>
  </g>
</svg>
